<svg width="190" height="49" viewBox="0 0 190 49" fill="none" xmlns="http://www.w3.org/2000/svg">
<path d="M0.798828 14.718C0.798828 10.8499 2.16016 7.55444 4.88281 4.83179C7.62207 2.10913 10.9175 0.747803 14.769 0.747803C18.6206 0.747803 21.916 2.10913 24.6553 4.83179C27.3779 7.55444 28.7393 10.8499 28.7393 14.718C28.7393 18.5696 27.3779 21.8567 24.6553 24.5793C21.916 27.302 18.6206 28.6633 14.769 28.6633H5.55518V33.9426C5.55518 34.5901 5.32275 35.1462 4.85791 35.6111C4.39307 36.0759 3.82861 36.3083 3.16455 36.3083C2.51709 36.3083 1.96094 36.0759 1.49609 35.6111C1.03125 35.1462 0.798828 34.5901 0.798828 33.9426V14.718ZM5.55518 23.9319H14.769C17.3091 23.9319 19.4839 23.0271 21.2935 21.2175C23.0864 19.4246 23.9829 17.2581 23.9829 14.718C23.9829 12.1614 23.0864 9.98657 21.2935 8.1936C19.4839 6.38403 17.3091 5.47925 14.769 5.47925C12.229 5.47925 10.0542 6.38403 8.24463 8.1936C6.45166 9.98657 5.55518 12.1614 5.55518 14.718V23.9319ZM45.2993 7.86987C49.2339 7.86987 52.5874 9.2561 55.3599 12.0286C58.1323 14.801 59.5186 18.1545 59.5186 22.0891V33.9177C59.5186 34.5818 59.2861 35.1462 58.8213 35.6111C58.3564 36.0759 57.8003 36.3083 57.1528 36.3083C56.4888 36.3083 55.9326 36.0759 55.4844 35.6111C55.0195 35.1462 54.7871 34.5818 54.7871 33.9177V32.6726C52.0811 35.0964 48.9185 36.3083 45.2993 36.3083C41.3813 36.3083 38.0278 34.9138 35.2388 32.1248C32.4663 29.3523 31.0801 26.0071 31.0801 22.0891C31.0801 18.1545 32.4663 14.801 35.2388 12.0286C38.0278 9.2561 41.3813 7.86987 45.2993 7.86987ZM51.998 15.3655C50.1553 13.5227 47.9224 12.6013 45.2993 12.6013C42.6763 12.6013 40.4434 13.5227 38.6006 15.3655C36.7412 17.2249 35.8115 19.4661 35.8115 22.0891C35.8115 24.6956 36.7412 26.9285 38.6006 28.7878C40.4434 30.6306 42.6763 31.552 45.2993 31.552C47.9224 31.552 50.1553 30.6306 51.998 28.7878C53.8574 26.9285 54.7871 24.6956 54.7871 22.0891C54.7871 19.4661 53.8574 17.2249 51.998 15.3655ZM92.9375 34.1667C92.9375 38.0847 91.5513 41.4382 88.7788 44.2273C86.0063 46.9998 82.6528 48.386 78.7183 48.386C75.9126 48.386 73.3394 47.6223 70.9985 46.095C68.6411 44.5676 66.8896 42.5173 65.7441 39.9441C65.4785 39.363 65.4619 38.7654 65.6943 38.1511C65.9268 37.5369 66.3418 37.0969 66.9395 36.8313C67.5371 36.5657 68.1348 36.5491 68.7324 36.7815C69.3467 37.0139 69.7866 37.429 70.0522 38.0266C70.8159 39.7366 71.9863 41.1062 73.5635 42.1355C75.124 43.1482 76.8423 43.6545 78.7183 43.6545C81.3413 43.6545 83.5742 42.7249 85.417 40.8655C87.2764 39.0227 88.2061 36.7898 88.2061 34.1667V32.6726C85.5 35.0964 82.3374 36.3083 78.7183 36.3083C74.8003 36.3083 71.4468 34.9138 68.6577 32.1248C65.8853 29.3523 64.499 26.0071 64.499 22.0891V10.2356C64.499 9.57153 64.7314 9.00708 65.1963 8.54224C65.6611 8.09399 66.2173 7.86987 66.8647 7.86987C67.5288 7.86987 68.085 8.09399 68.5332 8.54224C68.998 9.00708 69.2305 9.57153 69.2305 10.2356V22.0891C69.2305 24.6956 70.1602 26.9285 72.0195 28.7878C73.8623 30.6306 76.0952 31.552 78.7183 31.552C81.3413 31.552 83.5742 30.6306 85.417 28.7878C87.2764 26.9285 88.2061 24.6956 88.2061 22.0891V10.2356C88.2061 9.57153 88.4385 9.00708 88.9033 8.54224C89.3516 8.09399 89.9077 7.86987 90.5718 7.86987C91.2192 7.86987 91.7754 8.09399 92.2402 8.54224C92.7051 9.00708 92.9375 9.57153 92.9375 10.2356V34.1667Z" fill="white"/>
<path d="M112.137 36.3083C108.219 36.3083 104.866 34.9138 102.077 32.1248C99.3042 29.3523 97.918 26.0071 97.918 22.0891V3.11353C97.918 2.46606 98.1504 1.90991 98.6152 1.44507C99.0801 0.980225 99.6362 0.747803 100.284 0.747803C100.948 0.747803 101.504 0.980225 101.952 1.44507C102.417 1.90991 102.649 2.46606 102.649 3.11353V11.4807C105.355 9.07349 108.518 7.86987 112.137 7.86987C116.072 7.86987 119.425 9.2561 122.198 12.0286C124.97 14.801 126.356 18.1545 126.356 22.0891C126.356 26.0071 124.97 29.3523 122.198 32.1248C119.425 34.9138 116.072 36.3083 112.137 36.3083ZM105.438 28.7878C107.281 30.6306 109.514 31.552 112.137 31.552C114.76 31.552 116.993 30.6306 118.836 28.7878C120.695 26.9285 121.625 24.6956 121.625 22.0891C121.625 19.4661 120.695 17.2249 118.836 15.3655C116.993 13.5227 114.76 12.6013 112.137 12.6013C109.514 12.6013 107.281 13.5227 105.438 15.3655C103.579 17.2249 102.649 19.4661 102.649 22.0891C102.649 24.6956 103.579 26.9285 105.438 28.7878ZM143.066 12.6013C140.443 12.6013 138.21 13.5227 136.367 15.3655C134.508 17.2249 133.578 19.4661 133.578 22.0891C133.578 24.6956 134.508 26.9285 136.367 28.7878C138.21 30.6306 140.443 31.552 143.066 31.552C145.689 31.552 147.922 30.6306 149.765 28.7878C151.624 26.9285 152.554 24.6956 152.554 22.0891C152.554 19.4661 151.624 17.2249 149.765 15.3655C147.922 13.5227 145.689 12.6013 143.066 12.6013ZM133.005 12.0286C135.794 9.2561 139.148 7.86987 143.066 7.86987C147 7.86987 150.354 9.2561 153.126 12.0286C155.899 14.801 157.285 18.1545 157.285 22.0891C157.285 26.0071 155.899 29.3523 153.126 32.1248C150.354 34.9138 147 36.3083 143.066 36.3083C139.148 36.3083 135.794 34.9138 133.005 32.1248C130.233 29.3523 128.847 26.0071 128.847 22.0891C128.847 18.1545 130.233 14.801 133.005 12.0286ZM161.021 10.2356C161.021 9.57153 161.253 9.00708 161.718 8.54224C162.183 8.09399 162.739 7.86987 163.386 7.86987C164.05 7.86987 164.606 8.09399 165.055 8.54224C165.52 9.00708 165.752 9.57153 165.752 10.2356V10.3103C165.752 12.9333 166.682 15.1663 168.541 17.009C170.384 18.8518 172.608 19.7815 175.215 19.7981H175.265C177.871 19.7815 180.096 18.8518 181.938 17.009C183.798 15.1663 184.728 12.9333 184.728 10.3103V10.2356C184.728 9.57153 184.96 9.00708 185.425 8.54224C185.873 8.09399 186.429 7.86987 187.093 7.86987C187.741 7.86987 188.297 8.09399 188.762 8.54224C189.227 9.00708 189.459 9.57153 189.459 10.2356V10.3103C189.459 14.2283 188.073 17.5818 185.3 20.3708C184.669 20.9851 183.989 21.5413 183.258 22.0393C187.392 24.6292 189.459 28.5637 189.459 33.843V33.9177C189.459 34.5818 189.227 35.1462 188.762 35.6111C188.297 36.0759 187.741 36.3083 187.093 36.3083C186.429 36.3083 185.873 36.0759 185.425 35.6111C184.96 35.1462 184.728 34.5818 184.728 33.9177V33.843C184.728 31.7014 184.196 29.8669 183.134 28.3396C182.171 26.9451 180.859 25.9241 179.199 25.2766C177.971 24.7786 176.659 24.5295 175.265 24.5295H175.215C173.854 24.5295 172.575 24.762 171.38 25.2268L171.28 25.2766C169.62 25.9241 168.309 26.9451 167.346 28.3396C166.283 29.8669 165.752 31.7014 165.752 33.843V33.9177C165.752 34.5818 165.52 35.1462 165.055 35.6111C164.606 36.0759 164.05 36.3083 163.386 36.3083C162.739 36.3083 162.183 36.0759 161.718 35.6111C161.253 35.1462 161.021 34.5818 161.021 33.9177V33.843C161.021 28.5637 163.087 24.6292 167.221 22.0393C166.491 21.5413 165.81 20.9851 165.179 20.3708C162.407 17.5818 161.021 14.2283 161.021 10.3103V10.2356Z" fill="#00A3FF"/>
</svg>
